<svg width="1000" height="1000" viewBox="0 0 1000 1000" fill="none" xmlns="http://www.w3.org/2000/svg">
<path d="M760.882 518.462C763.444 528.259 771.884 533.835 781.228 533.835C789.367 533.835 797.957 529.615 797.957 520.874C797.957 505.2 759.224 500.377 759.224 481.236C759.224 472.193 768.418 465.411 780.776 465.411C790.874 465.411 792.984 468.124 797.204 468.124C798.108 468.124 798.711 467.974 799.314 467.069H801.273L803.383 481.086H801.273C797.957 473.248 790.12 468.124 781.831 468.124C773.843 468.124 768.267 472.344 768.267 478.373C768.267 493.896 807 497.965 807 518.161C807 528.862 796.45 536.849 782.283 536.849C775.652 536.849 767.212 533.835 765.554 533.835C764.499 533.835 763.595 534.438 763.143 535.041H761.184L758.621 518.462H760.882V518.462ZM736.919 486.21C742.947 483.045 746.263 479.277 746.263 475.358C746.263 474.002 745.811 473.098 744.605 473.098C743.55 473.098 743.098 473.399 741.742 473.399C738.577 473.399 736.316 471.289 736.316 468.426C736.316 465.411 739.18 463 742.797 463C747.62 463 751.237 466.768 751.237 472.043C751.237 478.825 745.811 485.306 737.823 488.169L736.919 486.21ZM718.381 510.475H715.97C715.066 502.788 712.654 501.884 707.681 501.884H687.335V525.094C687.335 530.067 689.445 531.122 693.815 531.122H712.353C720.793 531.122 723.355 528.108 726.369 518.764H728.479L726.52 535.041H662.317V532.931H665.632C675.278 532.931 676.936 530.519 676.936 524.039V477.921C676.936 471.741 675.429 469.179 667.29 469.179H664.577V467.22H722.601L723.506 482.442H721.396C719.889 473.098 716.874 471.138 712.504 471.138H687.335V497.965H708.887C713.257 497.965 715.216 496.157 715.819 489.827H718.08L718.381 510.475V510.475ZM656.891 535.041H627.502V532.931C635.038 532.629 636.545 530.821 636.545 523.587V477.167C636.545 471.289 634.284 469.631 627.502 469.33V467.22H656.891V469.33C649.355 469.33 646.643 470.837 646.643 478.222V524.491C646.643 530.971 648.602 533.081 656.891 533.081V535.041ZM586.207 525.094C586.207 530.971 588.317 533.081 595.702 533.081H600.223V535.191H562.244V533.081H566.765C574.15 533.081 576.26 530.971 576.26 525.094V471.138H555.311C550.488 471.138 548.379 473.701 546.419 483.196H544.159L546.118 465.562H548.379C548.529 466.165 548.981 466.617 549.735 466.919C550.488 467.069 551.242 467.22 552.146 467.22H610.321C611.979 467.22 613.787 466.919 614.089 465.562H616.35L618.309 483.196H616.199C614.39 473.55 612.28 471.138 607.307 471.138H586.358V525.094H586.207ZM493.519 518.462C496.081 528.259 504.521 533.835 513.865 533.835C522.004 533.835 530.595 529.615 530.595 520.874C530.595 505.2 491.862 500.377 491.862 481.236C491.862 472.193 501.055 465.411 513.413 465.411C523.511 465.411 525.621 468.124 529.841 468.124C530.745 468.124 531.348 467.974 531.951 467.069H533.91L536.02 480.935H533.91C530.595 473.098 522.757 467.974 514.468 467.974C506.481 467.974 500.904 472.193 500.904 478.222C500.904 493.745 539.637 497.815 539.637 518.01C539.637 528.711 529.087 536.699 515.071 536.699C508.44 536.699 500 533.684 498.342 533.684C497.287 533.684 496.383 534.287 495.931 534.89H493.821L491.259 518.312C491.259 518.462 493.519 518.462 493.519 518.462V518.462ZM480.558 535.041H451.169V532.931C458.705 532.629 460.212 530.821 460.212 523.587V477.167C460.212 471.289 457.951 469.631 451.169 469.33V467.22H480.558V469.33C472.872 469.33 470.31 470.837 470.31 478.222V524.491C470.31 530.971 472.269 533.081 480.558 533.081V535.041ZM391.638 503.391C393.145 503.692 395.858 504.295 398.119 504.295C411.231 504.295 419.671 496.157 419.671 485.155C419.671 476.564 415.903 468.275 399.927 468.275C397.215 468.275 394.502 468.275 391.638 468.727V503.391V503.391ZM391.638 505.501V524.642C391.638 530.821 393.748 533.081 401.284 533.081H405.202V535.191H371.744V533.081H373.402C379.732 533.081 381.541 531.876 381.541 526.752V475.057C381.541 470.988 380.033 469.33 375.813 469.33H369.785V467.22C373.101 467.069 379.129 466.768 385.007 466.617C390.885 466.466 396.762 466.316 399.927 466.316C425.247 466.316 430.974 477.167 430.974 485.607C430.974 498.418 419.671 503.09 416.656 503.994L430.974 523.587C432.632 525.847 435.646 529.163 437.605 531.122C439.263 532.629 440.921 533.534 444.387 534.438V536.397H442.88C431.125 536.397 424.192 530.971 411.683 512.434C409.573 509.118 408.066 507.46 406.559 505.953C406.86 506.104 398.27 506.857 391.638 505.501M295.785 502.637V523.436C295.785 530.519 297.293 533.081 305.431 533.081H305.732V535.191H275.439V533.081H276.193C283.276 533.081 285.688 531.273 285.688 525.094V477.016C285.688 471.289 283.578 469.631 276.946 469.33V467.22H305.732V469.33C297.142 469.33 295.635 471.44 295.635 479.88V498.87H342.958V477.167C342.958 471.44 340.848 469.179 333.463 469.179H331.203V467.22H362.249V469.33C355.015 469.481 353.056 471.44 353.056 478.222V523.587C353.056 531.273 355.467 533.081 362.702 533.081H363.907V535.191H329.846V533.081H333.614C341.451 533.081 343.109 530.519 343.109 524.943V502.637H295.785V502.637ZM264.588 485.004C260.67 474.906 250.27 468.275 237.159 468.275C216.963 468.275 204.454 481.538 204.454 499.774C204.454 519.517 220.128 534.136 238.515 534.136C248.01 534.136 259.765 531.122 268.054 518.01H270.315C268.808 522.984 265.492 529.766 262.629 533.986C254.943 533.081 249.517 537 235.35 537C210.633 536.849 193 522.23 193 502.035C193 480.784 211.085 465.562 236.405 465.562C251.627 465.562 258.108 469.933 261.875 469.933C263.232 469.933 263.835 469.631 263.985 469.33H265.794L266.849 485.155C267 485.004 264.588 485.004 264.588 485.004V485.004Z" fill="white"/>
</svg>
