<svg width="1000" height="1000" viewBox="0 0 1000 1000" fill="none" xmlns="http://www.w3.org/2000/svg">
<path d="M354.306 407.059C363.172 407.229 366.786 407.512 371.247 408.473C374.353 409.152 379.548 410.622 382.824 411.696C386.042 412.771 391.633 415.203 395.247 417.069C398.805 418.935 404.113 422.158 407.049 424.251C409.986 426.343 415.068 430.698 418.344 433.978C421.619 437.258 426.024 442.347 428.113 445.288C430.202 448.229 433.252 453.318 434.946 456.598C436.64 459.878 438.899 464.968 440.028 467.908C441.101 470.849 442.626 476.221 443.416 479.784C444.151 483.347 444.941 487.645 445.506 492.225H398.353L397.054 487.532C396.32 484.987 394.852 481.085 393.722 478.936C392.593 476.73 390.616 473.564 389.318 471.867C387.962 470.17 385.647 467.569 384.122 466.155C382.598 464.742 380.226 462.819 378.871 461.857C377.459 460.896 374.805 459.369 372.941 458.408C371.078 457.503 367.746 456.146 365.6 455.467C362.776 454.562 359.614 454.11 354.871 453.884C349.901 453.714 346.852 453.827 343.576 454.506C341.092 455.015 337.252 456.146 335.106 457.051C332.904 457.955 329.628 459.652 327.765 460.839C325.901 462.027 322.739 464.515 320.762 466.438C318.786 468.304 316.132 471.415 314.833 473.281C313.591 475.147 311.727 478.427 310.711 480.632C309.694 482.781 308.339 486.627 307.718 489.115C306.871 492.339 306.532 495.449 306.532 499.86C306.588 503.988 306.927 507.607 307.661 510.605C308.226 513.093 309.412 516.656 310.202 518.522C311.049 520.388 312.8 523.555 314.155 525.591C315.511 527.627 318.504 531.076 320.762 533.225C323.021 535.431 326.692 538.258 328.894 539.502C331.04 540.747 334.202 542.33 335.953 543.009C337.647 543.687 340.696 544.592 342.729 545.101C344.762 545.553 349.054 545.949 352.612 545.949C356.734 545.949 360.292 545.553 363.341 544.875C365.826 544.253 369.214 543.178 370.965 542.443C372.659 541.651 375.595 540.068 377.459 538.88C379.322 537.693 382.428 535.148 384.405 533.282C386.381 531.359 389.035 528.305 390.278 526.439C391.576 524.573 393.44 521.236 394.456 519.087C395.529 516.882 396.772 513.376 398.353 507.494H445.506L445.111 510.435C444.941 512.075 444.264 515.977 443.642 519.087C443.021 522.198 441.666 527.287 440.536 530.398C439.464 533.508 437.374 538.484 435.906 541.425C434.438 544.366 431.84 548.946 430.089 551.604C428.339 554.262 425.007 558.56 422.748 561.162C420.489 563.819 416.649 567.722 414.165 569.87C411.68 572.019 407.445 575.243 404.847 577.053C402.193 578.806 397.336 581.633 394.118 583.273C390.842 584.913 385.252 587.232 381.694 588.419C378.08 589.607 372.151 591.134 368.424 591.756C363.398 592.661 359.275 593 352.612 593C345.892 593 341.769 592.661 336.8 591.756C333.073 591.134 326.974 589.55 323.247 588.306C319.52 587.062 314.155 584.913 311.388 583.556C308.565 582.199 304.104 579.597 301.506 577.844C298.852 576.091 294.504 572.811 291.906 570.606C289.252 568.4 285.242 564.442 282.927 561.784C280.668 559.126 277.224 554.658 275.36 551.887C273.496 549.06 270.899 544.649 269.6 541.991C268.245 539.333 266.268 534.752 265.195 531.811C264.066 528.871 262.485 523.385 261.581 519.653C260.113 513.263 260 512.075 260 500.143C260 488.945 260.169 486.683 261.299 481.481C261.976 478.201 263.445 472.998 264.461 469.888C265.478 466.777 267.624 461.688 269.148 458.577C270.729 455.467 273.496 450.604 275.36 447.833C277.28 445.005 280.668 440.594 282.927 437.993C285.186 435.391 289.365 431.32 292.188 429.001C294.955 426.626 299.304 423.402 301.788 421.762C304.273 420.179 308.169 417.86 310.541 416.729C312.856 415.542 316.922 413.732 319.576 412.714C322.174 411.696 326.014 410.452 328.047 409.943C330.024 409.378 334.259 408.473 337.365 407.907C341.939 407.059 345.045 406.889 354.306 407.059V407.059ZM740 454.506V466.947H710.635V544.422H697.082V466.947L667.435 466.664L667.266 461.348C667.209 458.408 667.266 455.693 667.435 455.241C667.661 454.619 674.325 454.506 740 454.506ZM503.953 454.506H520.047L562.965 523.951L563.247 454.506L576.518 454.788L576.8 544.422L560.762 544.14L517.788 474.072L517.506 544.422H503.953V499.464V454.506ZM596.565 454.506L657.271 454.788V466.664L610.118 466.947V493.526H653.6V505.967H610.118V544.422H596.565V499.464V454.506Z" fill="white"/>
</svg>
