<svg width="1000" height="1000" viewBox="0 0 1000 1000" fill="none" xmlns="http://www.w3.org/2000/svg">
<path fill-rule="evenodd" clip-rule="evenodd" d="M567.143 500.5C567.143 538.882 536.016 570 497.62 570C459.223 570 428.105 538.882 428.105 500.5C428.105 462.118 459.227 431 497.624 431C536.021 431 567.138 462.118 567.138 500.5H567.143ZM364.399 437.618C364.69 437.115 365.108 436.697 365.611 436.406C366.115 436.115 366.686 435.962 367.267 435.962C367.849 435.962 368.42 436.115 368.924 436.406C369.427 436.697 369.845 437.115 370.136 437.618L441.091 560.489C441.382 560.992 441.535 561.563 441.535 562.145C441.535 562.726 441.382 563.297 441.091 563.8C440.8 564.304 440.382 564.722 439.879 565.012C439.375 565.303 438.804 565.456 438.223 565.456H296.312C295.731 565.456 295.16 565.303 294.656 565.012C294.153 564.722 293.734 564.304 293.444 563.8C293.153 563.297 293 562.726 293 562.145C293 561.563 293.153 560.992 293.444 560.489L364.399 437.618ZM582.858 435.139C579.204 435.139 576.238 438.104 576.238 441.761V559.247C576.238 562.905 579.204 565.865 582.858 565.865H700.38C704.034 565.865 707 562.905 707 559.247V441.757C707 438.1 704.034 435.135 700.38 435.135L582.858 435.139Z" fill="white"/>
</svg>
