<svg width="1000" height="1000" viewBox="0 0 1000 1000" fill="none" xmlns="http://www.w3.org/2000/svg">
<path fill-rule="evenodd" clip-rule="evenodd" d="M500 522.054C476.664 522.054 457.729 503.138 457.729 479.784C457.729 456.429 476.664 437.513 500 437.513C523.335 437.513 542.27 456.429 542.27 479.784C542.27 503.138 523.335 522.054 500 522.054ZM481.621 479.784C481.621 489.938 489.854 498.162 500 498.162C510.146 498.162 518.378 489.938 518.378 479.784C518.378 469.629 510.146 461.405 500 461.405C489.854 461.405 481.621 469.629 481.621 479.784Z" fill="white"/>
<path fill-rule="evenodd" clip-rule="evenodd" d="M364 479.839L444.865 398.918H555.135L636 479.839L500 615.784L364 479.839ZM562.487 450.377C528.128 415.868 471.872 415.868 437.513 450.378L408.108 479.783L437.513 509.189C471.872 543.699 528.128 543.699 562.487 509.189L591.892 479.783L562.487 450.377Z" fill="white"/>
</svg>
