<svg width="1000" height="1000" viewBox="0 0 1000 1000" fill="none" xmlns="http://www.w3.org/2000/svg">
<path fill-rule="evenodd" clip-rule="evenodd" d="M525.265 397.789H474.247C453.057 397.789 438.552 397.818 427.669 399.281C417.182 400.691 412.146 403.201 408.674 406.674C405.201 410.146 402.691 415.182 401.281 425.669C399.818 436.552 399.789 451.057 399.789 472.247V528.106C399.789 549.296 399.818 563.801 401.281 574.684C402.691 585.17 405.201 590.207 408.674 593.679C412.146 597.152 417.182 599.662 427.669 601.072C438.552 602.535 453.057 602.564 474.247 602.564H525.265C546.455 602.564 560.96 602.535 571.843 601.072C582.33 599.662 587.366 597.152 590.839 593.679C594.311 590.207 596.821 585.17 598.231 574.684C599.694 563.801 599.724 549.296 599.724 528.106V472.247C599.724 451.057 599.694 436.552 598.231 425.669C596.821 415.182 594.311 410.146 590.839 406.674C587.366 403.201 582.33 400.691 571.843 399.281C560.96 397.818 546.455 397.789 525.265 397.789ZM398.924 396.924C386 409.847 386 430.647 386 472.247V528.106C386 569.706 386 590.506 398.924 603.429C411.847 616.353 432.647 616.353 474.247 616.353H525.265C566.865 616.353 587.665 616.353 600.589 603.429C613.512 590.506 613.512 569.706 613.512 528.106V472.247C613.512 430.647 613.512 409.847 600.589 396.924C587.665 384 566.865 384 525.265 384H474.247C432.647 384 411.847 384 398.924 396.924Z" fill="white"/>
<path d="M526.053 444.876V526.789L473.382 444.876H450.121V561.183H471.223V478.273L524.89 561.183H547.154V444.876H526.053Z" fill="white"/>
</svg>
