<svg width="1000" height="1000" viewBox="0 0 1000 1000" fill="none" xmlns="http://www.w3.org/2000/svg">
<path d="M499.5 313C395.962 313 312 396.962 312 500.5C312 604.037 395.962 688 499.5 688C603.037 688 687 604.037 687 500.5C687 396.962 603.075 313 499.5 313ZM404.512 506.8L405.3 505.525L454.088 429.212C454.8 428.125 456.488 428.237 457.013 429.437C465.15 447.7 472.2 470.425 468.9 484.562C467.512 490.375 463.65 498.25 459.3 505.525C458.737 506.575 458.137 507.625 457.462 508.637C457.162 509.087 456.637 509.35 456.075 509.35H405.937C404.587 509.35 403.8 507.887 404.512 506.8ZM621.9 533.05C621.9 533.762 621.488 534.362 620.888 534.625C617.1 536.237 604.162 542.2 598.8 549.662C585.075 568.75 574.612 596.05 551.175 596.05H453.45C418.8 596.05 390.75 567.887 390.75 533.125V532C390.75 531.1 391.5 530.35 392.437 530.35H446.887C447.975 530.35 448.762 531.325 448.687 532.412C448.275 535.937 448.95 539.575 450.637 542.875C453.862 549.437 460.575 553.525 467.812 553.525H494.775V532.487H468.112C466.762 532.487 465.937 530.912 466.725 529.787C467.025 529.337 467.325 528.887 467.7 528.362C470.212 524.762 473.812 519.212 477.412 512.875C479.85 508.6 482.212 504.025 484.125 499.45C484.5 498.625 484.8 497.762 485.137 496.937C485.662 495.475 486.187 494.087 486.562 492.737C486.937 491.575 487.275 490.375 487.575 489.25C488.475 485.35 488.85 481.225 488.85 476.95C488.85 475.262 488.775 473.5 488.625 471.85C488.55 470.012 488.325 468.175 488.1 466.337C487.95 464.725 487.65 463.112 487.35 461.462C486.937 459.025 486.412 456.587 485.812 454.15L485.587 453.212C485.137 451.525 484.725 449.95 484.2 448.263C482.662 443.013 480.937 437.875 479.062 433.075C478.387 431.162 477.637 429.325 476.85 427.525C475.725 424.75 474.562 422.237 473.512 419.875C472.95 418.787 472.5 417.812 472.05 416.8C471.525 415.675 471 414.55 470.438 413.462C470.063 412.637 469.612 411.85 469.312 411.1L466.012 405.025C465.562 404.2 466.312 403.187 467.212 403.45L487.837 409.037H487.913C487.95 409.037 487.95 409.037 487.987 409.037L490.687 409.825L493.687 410.65L494.775 410.95V398.725C494.775 392.8 499.5 388 505.387 388C508.312 388 510.975 389.2 512.85 391.15C514.762 393.1 515.962 395.762 515.962 398.725V416.912L518.175 417.512C518.325 417.587 518.512 417.662 518.662 417.775C519.187 418.15 519.975 418.75 520.95 419.5C521.737 420.1 522.562 420.85 523.537 421.637C525.525 423.25 527.925 425.312 530.512 427.675C531.187 428.275 531.862 428.875 532.5 429.512C535.837 432.625 539.587 436.262 543.187 440.312C544.2 441.475 545.175 442.6 546.187 443.837C547.162 445.075 548.25 446.275 549.15 447.475C550.387 449.087 551.662 450.775 552.825 452.537C553.35 453.362 553.987 454.225 554.475 455.05C555.975 457.262 557.25 459.55 558.487 461.837C559.012 462.887 559.537 464.05 559.987 465.175C561.375 468.25 562.462 471.362 563.137 474.512C563.362 475.187 563.512 475.9 563.587 476.575V476.725C563.812 477.625 563.887 478.6 563.962 479.612C564.262 482.8 564.112 486.025 563.437 489.25C563.137 490.6 562.762 491.875 562.312 493.262C561.825 494.575 561.375 495.925 560.775 497.237C559.612 499.9 558.262 502.6 556.65 505.075C556.125 506.012 555.487 506.987 554.887 507.925C554.212 508.9 553.5 509.837 552.9 510.737C552.037 511.9 551.137 513.1 550.2 514.187C549.375 515.312 548.55 516.437 547.612 517.45C546.337 518.987 545.1 520.412 543.787 521.8C543.037 522.7 542.212 523.637 541.35 524.462C540.525 525.4 539.662 526.225 538.912 526.975C537.6 528.287 536.55 529.262 535.65 530.125L533.512 532.037C533.212 532.337 532.8 532.487 532.387 532.487H515.962V553.525H536.625C541.237 553.525 545.625 551.912 549.187 548.875C550.387 547.825 555.675 543.25 561.937 536.35C562.162 536.087 562.425 535.937 562.725 535.862L619.762 519.362C620.85 519.062 621.9 519.85 621.9 520.975V533.05Z" fill="white"/>
</svg>
