<svg width="1000" height="1000" viewBox="0 0 1000 1000" fill="none" xmlns="http://www.w3.org/2000/svg">
<path d="M342.992 537.14H325.472V463.016H359.164C378.032 463.016 388.814 471.102 388.814 487.275C388.814 503.447 378.032 511.534 359.164 511.534H342.992V537.14ZM357.143 498.057C366.577 498.057 370.62 494.013 370.62 487.275C370.62 479.863 366.577 476.493 357.143 476.493H342.992V498.057H357.143Z" fill="white"/>
<path d="M464.96 520.968H433.288L427.224 537.14H409.704L439.353 463.016H459.569L489.218 537.14H470.35L464.96 520.968ZM438.679 507.491H460.243L449.461 479.863L438.679 507.491Z" fill="white"/>
<path d="M550.539 524.337C559.973 524.337 564.016 518.946 565.364 512.208H582.884C580.189 527.706 569.407 538.488 550.539 538.488C528.302 538.488 513.477 522.989 513.477 500.078C513.477 477.841 527.628 461.668 550.539 461.668C570.081 461.668 580.189 472.45 582.884 487.949H565.364C564.016 480.536 559.299 475.819 550.539 475.819C538.41 475.819 532.345 485.253 532.345 500.078C532.345 515.577 539.084 524.337 550.539 524.337Z" fill="white"/>
<path d="M619.272 537.14V463.016H675.876V476.493H636.792V492.666H671.159V506.143H636.792V522.315H676.55V536.466H619.272V537.14Z" fill="white"/>
<path d="M750 601.156H250V399H749.326V601.156H750ZM264.151 587.679H735.849V412.477H264.151V587.679Z" fill="white"/>
</svg>
