<svg width="1000" height="1000" viewBox="0 0 1000 1000" fill="none" xmlns="http://www.w3.org/2000/svg">
<path fill-rule="evenodd" clip-rule="evenodd" d="M798.862 465.105C805.451 465.391 812.039 466.346 816.527 467.587C820.442 468.733 823.975 469.879 824.357 470.261C824.834 470.643 824.452 472.934 823.689 475.417C822.925 477.995 822.161 480 822.065 480C821.874 480 817.482 478.95 812.23 477.613C806.692 476.181 800.104 475.226 796.475 475.226C793.038 475.226 788.55 475.704 786.449 476.181C784.349 476.658 781.579 477.9 780.243 478.855C778.619 480.096 777.76 481.719 777.665 484.106C777.474 486.78 777.951 488.117 779.574 489.549C780.72 490.599 783.871 491.841 786.449 492.318C789.123 492.795 796.38 493.941 802.682 494.801C810.034 495.851 815.954 497.188 819.201 498.716C822.065 500.052 825.025 502.344 826.267 504.158C827.699 506.259 828.558 509.028 828.749 512.943C828.94 516.38 828.558 519.722 827.794 521.441C827.126 522.969 824.834 525.738 822.734 527.552C820.633 529.462 817.578 531.467 816.05 532.135C814.522 532.804 809.748 533.759 805.546 534.427C799.913 535.191 795.616 535.191 789.314 534.427C784.54 533.854 777.474 532.326 773.559 530.99C769.644 529.653 765.824 528.316 765.06 527.934C764.01 527.361 764.106 526.406 765.538 522.491C766.397 519.913 767.257 517.622 767.257 517.526C767.352 517.431 769.739 518.195 772.604 519.34C775.468 520.391 780.243 521.823 783.107 522.587C785.972 523.255 792.465 523.924 797.43 523.924C802.395 523.924 808.029 523.446 809.843 522.873C811.657 522.205 814.14 520.868 815.381 519.722C816.909 518.29 817.482 516.667 817.482 514.184C817.482 511.129 817.005 510.269 814.426 508.646C812.708 507.596 808.506 506.354 805.069 505.877C801.631 505.399 795.043 504.445 790.269 503.872C784.444 503.203 779.861 501.962 775.946 500.052C771.458 497.952 769.739 496.424 767.925 493.177C766.111 489.835 765.729 488.021 766.015 483.629C766.302 480.096 767.066 477.327 768.402 475.513C769.453 474.08 772.031 471.693 774.132 470.261C776.137 468.829 780.243 467.014 783.107 466.155C786.927 465.105 791.224 464.818 798.862 465.105V465.105ZM172.191 465.487L194.726 465.868C215.446 466.155 217.738 466.346 221.652 468.16C224.04 469.306 227.095 471.407 228.527 472.934C229.96 474.462 231.774 477.422 232.729 479.523C233.588 481.624 234.257 485.92 234.352 489.071C234.352 492.986 233.684 496.042 232.347 498.62C231.296 500.721 229.196 503.585 227.668 505.018C226.236 506.45 223.276 508.36 221.175 509.314C218.12 510.651 214.014 511.033 183.458 511.511V533.472H172L172.191 465.487ZM183.458 500.052C213.345 499.957 215.828 499.766 218.31 498.143C219.934 497.188 221.748 494.992 222.416 493.177C223.085 491.459 223.658 489.262 223.658 488.308C223.562 487.353 222.894 485.157 221.939 483.247C220.889 481.242 218.979 479.332 217.165 478.473C214.873 477.422 210.003 477.136 198.736 477.136H183.458V500.052ZM268.44 465.678H278.944V499.097L323.345 498.62L323.631 465.678H334.325V533.472H323.822V509.601H278.944V533.472H268.44V465.678ZM380.254 465.582L391.139 466.155L391.617 533.472H380.158L380.254 465.582ZM437.45 465.678H447.953V522.969H492.831V533.472H437.45V465.678ZM526.251 465.678H536.755V522.969H581.633V533.472H526.251V465.678ZM625.556 465.678V533.472H614.098L614.002 500.148C613.907 481.91 614.193 466.632 614.575 466.25C615.053 465.964 617.726 465.678 625.556 465.678V465.678ZM671.389 465.678H691.728C704.809 465.678 713.689 466.059 716.84 466.823C719.514 467.492 723.524 469.306 725.72 470.929C728.012 472.552 730.59 475.417 731.545 477.613C732.595 479.714 733.646 483.342 734.028 485.729C734.41 488.499 734.123 491.745 733.168 495.278C732.118 498.906 730.59 501.58 728.012 504.063C726.007 505.972 722.665 508.36 720.564 509.219C717.509 510.556 713.498 510.938 682.847 511.511V533.472H671.389V465.678ZM682.847 500.052C710.729 500.052 715.026 499.67 717.222 498.62C718.846 497.761 720.755 495.851 721.519 494.323C722.378 492.7 722.951 490.122 722.951 488.594C722.951 486.971 722.378 484.393 721.519 482.865C720.755 481.242 718.846 479.332 717.222 478.568C715.026 477.422 710.729 477.136 698.603 477.136H682.847V500.052Z" fill="white"/>
</svg>
