<svg width="1000" height="1000" viewBox="0 0 1000 1000" fill="none" xmlns="http://www.w3.org/2000/svg">
<path d="M335.886 488.434H308.121V495.435L335.886 495.433C335.927 495.434 335.969 495.435 336.011 495.435C337.92 495.435 339.468 493.868 339.468 491.935C339.468 490.001 337.92 488.434 336.011 488.434L335.97 488.434C335.942 488.433 335.914 488.433 335.886 488.434Z" fill="white"/>
<path fill-rule="evenodd" clip-rule="evenodd" d="M280.058 429C263.457 429 250 442.458 250 459.058V541.719C250 558.319 263.457 571.777 280.058 571.777H362.719C379.32 571.777 392.777 558.319 392.777 541.719V459.058C392.777 442.458 379.32 429 362.719 429H280.058ZM349.684 499.583C354.181 498.4 358.183 494.993 358.183 488.144C358.183 476.741 348.622 474.087 336.369 474.087H287.573V525.437H308.111V508.01H332.474C336.227 508.01 338.423 509.516 338.423 513.245V525.437H358.961V512.6C358.961 505.607 355.066 501.197 349.684 499.583Z" fill="white"/>
<path fill-rule="evenodd" clip-rule="evenodd" d="M672.092 510.284C672.092 525.265 663.408 535.577 648.676 535.577C642.626 535.577 637.065 533.048 634.626 529.156V534.799H622.333V465.924H634.626V491.217C637.456 487.521 642.724 484.991 648.871 484.991C663.408 484.991 672.092 495.303 672.092 510.284ZM633.846 510.284C633.846 519.137 639.017 524.973 646.919 524.973C654.725 524.973 659.896 519.137 659.896 510.284C659.896 501.432 654.725 495.595 646.919 495.595C639.017 495.595 633.846 501.432 633.846 510.284Z" fill="white"/>
<path fill-rule="evenodd" clip-rule="evenodd" d="M496.804 534.799L481.787 504.35C488.519 501.042 492.52 494.525 492.52 486.84C492.52 474.582 483.836 466.702 470.47 466.702H437.865L437.962 534.799H451.231V506.879H468.226L481.388 534.799H496.804ZM451.231 478.084H468.421C475.25 478.084 479.153 481.392 479.153 486.84C479.153 492.287 475.25 495.498 468.421 495.498H451.231V478.084Z" fill="white"/>
<path fill-rule="evenodd" clip-rule="evenodd" d="M537.18 485.769H549.474V534.799H537.18V529.156C534.741 533.048 529.277 535.577 523.131 535.577C508.398 535.577 499.715 525.265 499.715 510.284C499.715 495.303 508.398 484.991 522.936 484.991C529.082 484.991 534.351 487.521 537.18 491.217V485.769ZM511.911 510.284C511.911 519.137 517.081 524.973 524.887 524.973C532.79 524.973 537.961 519.137 537.961 510.284C537.961 501.432 532.79 495.595 524.887 495.595C517.081 495.595 511.911 501.432 511.911 510.284Z" fill="white"/>
<path d="M592.936 485.769L592.156 497.638C590.4 496.859 588.058 496.47 585.912 496.47C578.984 496.47 572.74 502.21 572.74 516.802V534.799H560.447V485.769H572.74V494.719C575.179 489.174 581.619 484.991 587.57 484.991C589.326 484.991 591.473 485.283 592.936 485.769Z" fill="white"/>
<path d="M611.401 534.799H599.108V485.769H611.401V534.799Z" fill="white"/>
<path d="M680.43 534.799H692.724V465.924H680.43V534.799Z" fill="white"/>
<path fill-rule="evenodd" clip-rule="evenodd" d="M750 508.63C750 497.249 741.902 484.991 725.316 484.991C709.022 484.991 701.021 497.54 701.021 510.284C701.021 523.028 709.705 535.577 725.998 535.577C737.512 535.577 746.097 530.13 748.829 520.888L737.316 517.775C736.048 522.541 731.95 525.265 726.194 525.265C719.169 525.265 714.388 520.888 713.315 513.494H749.805C749.902 512.522 750 510.382 750 508.63ZM713.608 504.545C714.973 497.929 719.266 494.33 725.316 494.33C732.438 494.33 736.243 498.708 736.828 504.545H713.608Z" fill="white"/>
<path d="M597.651 468.452C597.651 465.339 600.175 462.816 603.287 462.816H607.32C610.432 462.816 612.956 465.339 612.956 468.452V472.484C612.956 475.597 610.432 478.12 607.32 478.12H603.287C600.175 478.12 597.651 475.597 597.651 472.484V468.452Z" fill="white"/>
</svg>
