<svg width="1000" height="1000" viewBox="0 0 1000 1000" fill="none" xmlns="http://www.w3.org/2000/svg">
<path fill-rule="evenodd" clip-rule="evenodd" d="M706.899 466.495L685.155 494.022H682.475L693.911 466.495H706.899ZM277.891 535.397C270.319 535.397 263.629 533.529 258.708 531.026L253.791 535.397H251.511L250 507.669L252.651 507.414C260.602 525.407 269.941 531.15 278.645 531.15C287.733 531.15 293.032 525.286 293.032 517.412C293.032 509.909 290.129 506.289 278.27 501.416C274.231 499.791 269.566 498.167 265.65 496.295C256.811 491.917 252.145 485.041 252.145 475.917C252.145 461.05 265.148 452.05 277.895 452.05C284.196 452.05 288.494 453.802 292.657 456.173L297.574 451.926H299.722L301.871 476.42L299.347 476.799C292.402 463.05 284.961 456.301 276.759 456.301C269.562 456.301 264.765 461.05 264.765 468.422C264.765 474.296 267.293 478.791 276.245 482.67C280.663 484.666 285.842 486.421 290.512 488.672C300.728 493.549 305.528 499.912 305.528 509.159C305.528 525.654 291.52 535.397 277.891 535.397ZM344.612 534.129C325.429 534.129 315.97 520.515 315.97 503.9C315.97 488.526 326.82 473.779 346.251 473.779C365.434 473.779 374.649 487.277 374.649 503.772C374.649 519.27 364.046 534.129 344.612 534.129ZM345.118 477.276C336.282 477.276 330.859 487.022 330.859 504.144C330.859 521.014 336.668 530.633 345.624 530.633C354.835 530.633 359.883 520.89 359.883 503.772C359.883 486.898 354.457 477.276 345.118 477.276ZM400.737 533.19C390.769 533.19 387.615 528.324 387.615 519.324V481.956H378.276V480.208L389.884 471.088L399.098 459.211H400.992V475.462H420.175V481.956H400.992V514.32C400.992 519.324 401.746 522.322 404.274 524.066C406.423 525.57 409.322 526.069 413.488 526.069C415.506 526.069 418.03 525.938 420.427 525.814L420.55 527.57C415.634 530.564 407.552 533.19 400.737 533.19ZM461.259 484.738C456.462 484.738 452.798 485.613 448.136 487.871V529.224L455.198 531.846V533.594H426.68V531.846L434.627 529.224V453.744L425.923 448.12V446.875L447.622 441L448.132 441.375V485.117L448.639 485.365C456.087 478.368 462.901 475.24 469.712 475.24C481.075 475.24 485.869 483.74 485.869 492.613V529.224L493.819 531.846V533.594H465.29V531.846L472.367 529.224V497.737C472.367 489.615 469.082 484.738 461.259 484.738ZM513.618 499.649C513.618 515.518 518.156 525.887 532.415 525.887C538.727 525.887 543.902 524.645 551.471 521.896L552.225 523.389C544.532 530.007 535.952 534.133 527.87 534.133C510.588 534.133 499.224 522.395 499.224 505.022C499.224 487.15 512.857 473.779 528.252 473.779C544.911 473.779 552.986 484.902 552.855 499.649H513.618ZM538.727 495.399C538.217 483.653 534.808 477.276 527.363 477.276C520.043 477.276 514.368 484.902 513.738 496.521L538.727 495.399ZM584.352 535.594C577.796 535.594 569.084 534.097 563.027 532.352V453.744L554.199 448.12V446.871L576.022 441L576.536 441.375V483.238L577.035 483.493C581.453 479.115 587.51 475.24 595.333 475.24C607.323 475.24 618.18 486.115 618.18 503.987C618.18 521.852 604.544 535.594 584.352 535.594ZM586.501 483.992C583.077 483.974 579.686 484.655 576.536 485.995V525.6C578.325 527.43 580.465 528.882 582.827 529.87C585.189 530.857 587.725 531.359 590.285 531.347C597.726 531.347 603.91 524.729 603.91 507.112C603.91 491.615 597.227 483.992 586.501 483.992ZM653.614 537.648C647.306 553.021 641.377 559.766 633.546 559.766C626.863 559.766 623.705 555.895 623.705 551.899C623.705 548.021 627.238 544.779 631.277 544.779C635.571 544.779 638.088 547.026 641.122 550.763C643.518 548.148 646.418 543.643 648.067 540.15L650.209 535.401L627.875 482.043L620.169 479.042V477.421H650.967V479.042L642.888 482.043L656.517 518.658H657.147L669.512 482.921L662.195 479.042V477.421H683.903V479.042L675.7 483.169L653.614 537.648ZM727.146 533.995C720.135 533.995 714.132 532.873 708.254 530.629L708.13 514.178L710.683 513.927C717.574 525.771 722.811 530.254 729.571 530.254C735.57 530.254 739.274 526.525 739.274 520.785C739.274 514.302 732.51 511.81 725.237 508.94C717.195 505.575 708.64 501.835 708.64 491.487C708.64 481.635 717.574 473.779 730.595 473.779C735.57 473.779 742.592 474.781 746.037 476.026L746.42 490.861L743.994 491.487C737.744 481.384 733.658 477.52 727.783 477.52C722.429 477.52 719.107 481.013 719.107 485.5C719.107 491.983 726.006 494.605 733.275 497.471C741.317 500.713 750 504.446 750 515.045C750 526.645 739.525 533.995 727.146 533.995Z" fill="white"/>
</svg>
