<svg width="1000" height="1000" viewBox="0 0 1000 1000" fill="none" xmlns="http://www.w3.org/2000/svg">
<path d="M251.009 442.93C248.766 442.634 244.103 442.221 240.679 442.103C237.255 441.926 232.886 441.985 230.938 442.221C228.99 442.457 226.334 443.048 225.035 443.461C223.736 443.874 221.08 444.996 219.131 446C217.183 447.003 214.173 449.188 212.461 450.959C210.749 452.671 208.624 455.741 207.62 457.749C206.675 459.815 205.613 463.299 205.318 465.601C204.904 468.258 204.904 471.269 205.259 473.985C205.613 476.347 206.498 479.712 207.266 481.365C208.151 483.254 210.04 485.793 212.166 487.741C214.055 489.513 217.479 491.992 219.722 493.173C222.024 494.354 228.223 496.952 233.595 498.959C238.967 500.908 245.283 503.505 247.704 504.745C250.124 505.926 253.253 507.992 254.728 509.291C256.145 510.59 257.68 512.716 258.211 514.015C258.861 515.727 258.979 517.321 258.684 519.624C258.507 521.395 257.916 523.815 257.444 524.937C256.972 526.059 255.85 527.771 254.965 528.657C254.079 529.601 252.308 530.959 251.009 531.609C249.002 532.731 247.704 532.908 242.154 532.908C236.074 532.908 235.425 532.79 231.647 530.959C229.403 529.897 226.097 527.594 223.972 525.587C221.965 523.697 218.836 519.919 217.006 517.203C215.176 514.487 212.284 509.528 210.631 506.162C208.978 502.856 207.384 500.258 207.03 500.435C206.675 500.612 206.439 507.107 206.439 518.147C206.439 534.502 206.498 535.565 207.443 535.21C208.033 534.974 209.686 534.443 211.162 534.029C212.638 533.557 215.412 533.203 217.36 533.203C219.309 533.203 224.09 533.793 227.986 534.443C231.883 535.151 237.609 535.742 240.679 535.742C243.748 535.742 247.763 535.387 249.534 534.974C251.305 534.561 254.374 533.498 256.322 532.672C258.27 531.786 261.281 529.779 263.052 528.184C264.764 526.531 266.83 524.288 267.539 523.166C268.247 522.044 269.251 519.919 269.841 518.443C270.431 516.967 271.081 513.897 271.376 511.653C271.671 509.291 271.612 505.926 271.317 503.801C271.022 501.793 270.077 498.664 269.192 496.834C268.188 494.767 266.181 492.17 263.997 490.162C262.049 488.332 258.33 485.734 255.732 484.435C253.135 483.077 247.29 480.598 242.745 478.885C238.199 477.232 232.06 474.693 229.167 473.277C225.802 471.682 222.91 469.793 221.316 468.199C219.899 466.782 218.482 464.657 218.128 463.535C217.774 462.413 217.656 459.992 217.774 458.221C217.951 456.45 218.6 453.911 219.25 452.612C219.899 451.313 221.375 449.483 222.437 448.538C223.559 447.594 225.389 446.413 226.511 446C227.632 445.527 230.053 444.878 231.824 444.524C234.067 444.169 236.074 444.169 238.317 444.701C240.088 445.055 242.863 446.059 244.516 446.885C246.11 447.712 249.179 449.955 251.186 451.963C253.253 453.97 256.204 457.276 257.798 459.402C259.333 461.527 261.872 465.424 263.465 468.14C265.059 470.797 266.535 473.04 266.83 472.981C267.066 472.981 267.244 471.328 267.184 469.321C267.184 467.254 266.83 460.583 266.476 454.383L265.768 443.225C257.562 443.461 253.312 443.284 251.009 442.93Z" fill="white"/>
<path fill-rule="evenodd" clip-rule="evenodd" d="M588.974 444.287C586.082 443.343 582.776 443.225 559.989 442.989C545.821 442.871 534.073 442.989 533.896 443.284C533.719 443.52 534.782 444.701 536.317 445.823C537.97 447.062 539.8 449.188 540.862 451.136L542.633 454.383C542.928 516.317 542.81 520.922 541.984 523.756C541.275 526.354 540.331 527.712 537.556 530.369C535.667 532.258 534.073 533.911 534.073 534.088C534.073 534.266 542.692 534.384 553.259 534.384C565.479 534.384 572.563 534.148 572.74 533.793C572.917 533.439 572.74 533.203 572.445 533.203C572.15 533.203 570.733 532.199 569.434 530.959C568.077 529.779 566.483 527.771 565.892 526.531C565.243 525.35 564.535 522.694 564.18 520.627C563.885 518.62 563.59 510.767 563.59 503.21C563.59 489.926 563.649 489.513 564.771 489.513C565.42 489.513 566.66 490.398 567.604 491.402C568.49 492.465 570.379 495.476 571.796 498.074C573.212 500.671 578.525 509.882 583.602 518.62L592.811 534.384C613.473 534.384 619.671 534.207 619.849 533.911C620.085 533.675 619.494 532.967 618.609 532.317C617.664 531.668 616.011 530.074 614.89 528.775C613.768 527.476 611.879 525.055 610.698 523.461C609.518 521.808 604.028 513.306 598.479 504.568C590.037 491.225 588.561 488.568 589.447 488.273C589.978 488.037 592.28 487.092 594.582 486.206C597.003 485.203 599.836 483.432 601.548 481.837C603.201 480.361 605.149 477.823 606.035 476.229C607.393 473.631 607.57 472.568 607.57 467.372C607.57 462.177 607.393 461.055 605.976 458.044C605.031 456.214 603.142 453.439 601.725 451.845C600.309 450.31 597.593 448.243 595.704 447.18C593.756 446.177 590.745 444.878 588.974 444.287ZM574.157 447.476C572.386 446.59 569.493 445.704 567.722 445.527C565.951 445.291 564.239 445.35 563.944 445.586C563.649 445.823 563.413 454.679 563.472 466.605L563.59 487.151C568.844 487.682 571.855 487.564 573.626 487.21C575.397 486.856 578.112 485.793 579.706 484.789C581.831 483.432 582.894 482.192 584.311 479.358C585.609 476.701 586.2 474.457 586.436 471.505C586.613 469.262 586.436 465.896 586.082 464.125C585.727 462.354 584.724 459.461 583.956 457.749C583.13 456.096 581.3 453.439 579.883 451.904C578.466 450.31 575.869 448.361 574.157 447.476Z" fill="white"/>
<path fill-rule="evenodd" clip-rule="evenodd" d="M456.917 469.439C455.205 468.789 452.017 468.14 449.833 467.963C447.59 467.845 444.756 467.963 443.458 468.258C442.159 468.494 439.62 469.321 437.849 470.029C436.078 470.738 433.54 472.037 432.241 472.981C430.942 473.867 428.581 476.051 426.928 477.823C425.334 479.594 423.268 482.369 422.383 483.963C421.497 485.557 420.257 488.981 419.549 491.579C418.723 494.885 418.368 498.074 418.368 502.206C418.427 505.454 418.782 509.587 419.195 511.358C419.667 513.129 420.435 515.786 421.025 517.262C421.556 518.738 422.796 521.218 423.858 522.812C424.921 524.406 427.223 527.004 428.994 528.657C430.765 530.251 433.599 532.14 435.193 532.908C436.846 533.675 439.325 534.62 440.801 534.974C442.277 535.387 445.465 535.565 447.885 535.446C451.132 535.269 453.257 534.797 455.854 533.557C457.803 532.672 460.577 530.959 461.994 529.779C463.411 528.598 465.831 525.882 467.307 523.756C468.783 521.631 470.613 518.443 471.321 516.671C472.03 514.9 472.502 513.247 472.325 512.952C472.207 512.716 470.967 513.424 469.609 514.546C468.192 515.609 465.654 517.203 464.001 518.088C462.289 518.915 459.633 519.919 458.098 520.214C456.032 520.686 454.32 520.686 452.017 520.155C450.246 519.801 447.826 519.033 446.704 518.443C445.583 517.852 443.635 516.376 442.336 515.077C441.096 513.838 439.148 510.945 438.086 508.701C436.787 505.985 435.901 503.21 435.606 500.553L435.193 496.598H473.86C473.328 491.343 472.561 488.096 471.852 485.97C471.144 483.845 469.491 480.539 468.192 478.649C466.953 476.701 464.591 474.103 462.938 472.863C461.345 471.682 458.57 470.088 456.917 469.439ZM448.357 470.856C447.413 470.384 446.232 470.029 445.642 470.029C445.051 470.029 443.635 470.62 442.513 471.387C441.332 472.155 439.856 474.044 438.912 475.933C438.026 477.705 436.846 480.775 436.374 482.723C435.901 484.671 435.488 488.037 435.488 490.221V494.236H456.445C455.795 487.623 455.028 483.668 454.32 481.247C453.67 478.826 452.372 475.638 451.545 474.221C450.66 472.804 449.243 471.269 448.357 470.856Z" fill="white"/>
<path fill-rule="evenodd" clip-rule="evenodd" d="M773.748 468.258C771.977 467.904 769.734 467.668 768.73 467.727C767.727 467.786 765.897 468.022 764.598 468.258C763.299 468.494 760.702 469.38 758.872 470.147C756.983 470.856 754.031 472.509 752.378 473.808C750.666 475.048 748.305 477.232 747.183 478.649C746.061 480.066 744.409 482.487 743.523 484.022C742.638 485.616 741.339 488.981 740.689 491.579C739.863 494.826 739.509 498.133 739.509 502.206C739.568 505.454 739.922 509.587 740.335 511.358C740.808 513.129 741.575 515.786 742.165 517.262C742.697 518.738 743.936 521.218 744.999 522.812C746.062 524.406 748.482 527.181 750.43 528.893C752.555 530.782 755.507 532.672 757.809 533.616C761.056 534.974 762.532 535.21 767.55 535.269C772.863 535.269 773.807 535.092 776.995 533.616C778.943 532.672 781.718 530.959 783.134 529.779C784.551 528.539 786.912 525.882 788.447 523.756C789.923 521.631 791.753 518.443 792.462 516.671C793.17 514.9 793.642 513.247 793.465 512.952C793.347 512.716 792.107 513.424 790.691 514.546C789.333 515.609 786.794 517.203 785.082 518.088C783.429 518.915 780.773 519.919 779.179 520.214C777.172 520.686 775.46 520.686 773.158 520.155C771.387 519.801 768.966 519.033 767.845 518.443C766.723 517.852 764.775 516.376 763.476 515.077C762.237 513.838 760.229 510.826 759.108 508.406C757.691 505.454 756.884 502.738 756.687 500.258L756.333 496.598C794.587 496.598 795 496.598 795 495.417C795 494.767 794.587 492.288 794.055 489.926C793.524 487.623 792.284 483.963 791.222 481.837C790.218 479.771 788.034 476.701 786.44 475.048C784.787 473.454 782.013 471.387 780.242 470.502C778.471 469.616 775.519 468.612 773.748 468.258ZM769.38 470.738C768.553 470.384 767.372 470.029 766.782 470.029C766.192 470.029 764.775 470.62 763.653 471.387C762.473 472.155 760.997 474.044 760.052 475.933C759.167 477.705 757.986 480.775 757.514 482.723C757.042 484.671 756.628 488.037 756.628 490.221V494.236H777.585C776.936 487.623 776.168 483.668 775.519 481.247C774.811 478.826 773.512 475.638 772.567 474.162C771.682 472.686 770.206 471.151 769.38 470.738Z" fill="white"/>
<path fill-rule="evenodd" clip-rule="evenodd" d="M666.603 470.324C663.356 468.671 662.707 468.553 655.741 468.435C651.667 468.376 647.889 468.435 647.417 468.553C647.096 468.634 645.653 468.851 643.796 469.13C642.925 469.261 641.963 469.406 640.982 469.557L635.433 470.324C627.818 480.598 625.634 483.904 625.693 484.258C625.811 484.612 627.995 483.136 630.593 480.952C633.19 478.767 637.145 475.874 639.448 474.457C641.691 473.04 644.761 471.564 646.236 471.151C648.539 470.561 649.188 470.62 651.195 471.564C652.612 472.273 653.97 473.513 654.619 474.753C655.505 476.347 655.682 477.764 655.564 481.011C655.446 484.258 655.091 485.675 653.911 487.387C653.084 488.568 650.959 490.694 649.188 492.051C647.417 493.409 642.635 496.539 638.621 498.959C634.607 501.38 629.825 504.686 628.054 506.339C626.283 507.933 624.276 510.354 623.627 511.653C622.918 513.07 622.328 515.668 622.151 518.147C621.915 521.69 622.092 522.753 623.332 525.528C624.158 527.299 625.575 529.542 626.519 530.487C627.464 531.432 629.53 532.79 631.183 533.557C633.308 534.561 635.197 534.974 637.972 534.974C641.042 534.974 642.576 534.62 645.646 533.144C647.771 532.14 650.723 530.428 652.258 529.306C653.852 528.184 655.209 527.476 655.387 527.712C655.564 528.007 655.682 529.601 655.682 531.255V534.384C674.868 534.384 680.476 534.266 680.476 534.088C680.476 533.911 679.531 532.908 678.291 531.845C677.111 530.841 675.753 529.011 675.222 527.889C674.395 526.118 674.218 522.044 673.982 501.852L673.687 477.882C670.499 472.804 669.259 471.682 666.603 470.324ZM655.741 505.336C655.741 493.646 655.564 490.694 654.914 490.694C654.501 490.694 651.667 493.055 648.598 495.889C644.465 499.786 642.694 501.911 641.691 504.155C640.923 505.985 640.215 509.114 639.979 511.83C639.743 515.195 639.861 517.262 640.569 519.801C641.101 521.631 642.281 524.052 643.226 525.114C644.17 526.118 645.705 527.358 646.65 527.83C647.948 528.421 648.716 528.48 650.133 527.948C651.077 527.594 652.435 526.708 653.143 526C653.852 525.232 654.737 523.579 655.091 522.28C655.446 520.863 655.741 514.015 655.741 505.336Z" fill="white"/>
<path d="M302.073 495.24V468.848C282.415 468.848 276.689 468.967 276.689 469.144C276.689 469.321 277.869 470.561 279.227 471.919C281.234 473.867 281.943 475.166 282.474 477.527C282.946 479.653 283.182 488.332 283.182 503.801C283.182 526.708 283.182 527.063 284.481 529.66C285.485 531.55 286.606 532.731 288.495 533.734C290.68 534.915 291.978 535.151 295.579 535.092C298.354 535.092 301.542 534.561 304.139 533.793C306.442 533.085 309.984 531.609 312.109 530.487C314.234 529.424 316.123 528.716 316.418 528.952C316.654 529.188 316.831 530.487 316.831 531.845V534.384C336.489 534.384 342.216 534.325 342.216 534.207C342.275 534.148 341.094 532.908 339.677 531.432C337.67 529.365 336.903 528.066 336.371 525.646C335.958 523.638 335.722 513.483 335.722 495.712V468.848C316.949 468.848 311.518 468.967 311.518 469.144C311.518 469.321 312.463 470.561 313.585 471.919C314.824 473.454 315.887 475.579 316.241 477.232C316.595 478.826 316.831 489.985 316.831 502.797V525.528C312.935 527.476 310.633 528.125 309.157 528.303C307.091 528.539 306.146 528.362 304.848 527.358C303.962 526.649 303.018 525.114 302.663 523.874C302.309 522.576 302.073 510.885 302.073 495.24Z" fill="white"/>
<path fill-rule="evenodd" clip-rule="evenodd" d="M387.966 470.561C383.716 469.38 381.473 469.262 364.884 468.967C351.72 468.789 346.466 468.907 346.407 469.38C346.348 469.734 347.174 470.561 348.119 471.21C349.063 471.86 350.48 473.513 351.189 474.871L352.546 477.409V549.439C350.48 553.336 349.123 555.048 348.119 555.756C347.174 556.524 346.525 557.292 346.643 557.528C346.82 557.823 353.786 558 362.169 558C370.552 558 377.636 557.882 377.813 557.705C378.049 557.528 377.045 556.288 375.687 554.871C373.68 552.982 372.972 551.683 372.441 549.262C372.027 547.609 371.732 543.535 371.732 540.288V534.384C377.458 534.384 381.237 533.852 383.834 533.203C386.431 532.494 390.151 531.136 392.04 530.074C393.988 529.011 396.998 526.826 398.769 525.232C400.54 523.579 402.843 520.804 403.905 519.033C404.968 517.262 406.444 513.897 407.152 511.653C407.861 509.35 408.569 505.099 408.746 502.206C408.982 498.428 408.805 495.535 408.097 492.288C407.565 489.808 406.503 486.325 405.735 484.612C404.909 482.959 403.138 480.243 401.721 478.649C400.304 477.114 397.707 474.93 395.936 473.808C394.165 472.745 390.564 471.269 387.966 470.561ZM373.444 471.505L371.909 471.092L371.791 501.557L371.732 532.022C377.813 532.022 379.997 531.609 381.65 530.841C383.303 530.015 384.72 528.775 385.9 526.826C386.845 525.291 387.907 522.871 388.202 521.395C388.557 519.919 388.97 516.612 389.206 514.015C389.442 511.358 389.265 506.162 388.911 502.206C388.498 498.31 387.671 493.173 387.022 490.812C386.431 488.509 385.192 485.026 384.365 483.136C383.539 481.306 382.004 478.649 381 477.232C379.938 475.815 378.167 474.044 377.045 473.277C375.924 472.509 374.271 471.682 373.444 471.505Z" fill="white"/>
<path d="M518.134 470.443C515.124 469.262 513.648 469.144 497.06 468.967C484.604 468.848 479.232 468.967 479.232 469.38C479.173 469.734 479.94 470.561 480.944 471.21C481.888 471.86 483.305 473.513 484.013 474.871C485.371 477.409 485.371 477.646 485.371 501.321C485.371 518.325 485.194 525.823 484.663 527.299C484.249 528.421 482.892 530.369 481.593 531.55C480.235 532.79 479.173 533.911 479.173 534.088C479.173 534.266 486.198 534.384 494.698 534.384C503.258 534.384 510.46 534.266 510.637 534.088C510.873 533.911 509.988 532.79 508.63 531.55C506.977 530.015 505.974 528.48 505.383 526.413C504.734 524.052 504.557 518.325 504.557 497.306C504.557 474.516 504.675 471.21 505.442 471.21C505.915 471.21 507.095 471.919 507.981 472.804C508.925 473.749 510.224 475.992 510.932 477.823C511.641 479.712 512.467 483.432 512.762 486.088C513.058 488.804 513.176 491.697 513.058 492.583C512.881 493.646 513.058 494.236 513.53 494.236C513.943 494.177 517.544 492.406 521.558 490.221L528.819 486.265C528.288 482.133 527.639 479.889 527.048 478.59C526.517 477.291 524.982 475.225 523.684 473.985C522.444 472.745 519.905 471.151 518.134 470.443Z" fill="white"/>
<path d="M724.16 470.502C721.15 469.262 719.792 469.144 703.085 468.967C690.629 468.848 685.257 468.967 685.257 469.38C685.198 469.734 685.907 470.502 686.792 471.092C687.737 471.741 689.094 473.513 689.921 475.107L691.397 478C691.397 518.915 691.22 525.823 690.629 527.417C690.216 528.716 688.917 530.487 687.56 531.55C686.32 532.612 685.257 533.675 685.198 533.911C685.198 534.207 692.223 534.384 700.724 534.384C709.284 534.384 716.486 534.266 716.663 534.088C716.899 533.911 716.132 532.908 714.951 531.845C713.77 530.841 712.354 529.129 711.822 528.184C710.996 526.649 710.878 522.989 710.701 498.782C710.583 474.575 710.701 471.21 711.468 471.21C711.94 471.21 713.121 471.919 714.007 472.804C714.951 473.749 716.309 476.051 717.076 478C718.021 480.539 718.493 483.372 718.788 487.919C718.965 491.52 719.379 494.236 719.733 494.236C720.028 494.177 723.511 492.406 727.407 490.162L734.491 486.206C734.373 482.605 733.842 480.361 733.192 478.885C732.543 477.409 731.008 475.225 729.709 473.985C728.47 472.804 725.931 471.21 724.16 470.502Z" fill="white"/>
</svg>
