<svg width="1000" height="1000" viewBox="0 0 1000 1000" fill="none" xmlns="http://www.w3.org/2000/svg">
<path fill-rule="evenodd" clip-rule="evenodd" d="M224.181 439V462.696H327.357L237.452 493.494C231.703 495.643 227.116 498.806 223.752 502.984C220.389 507.162 218.126 511.758 216.964 516.712C215.802 521.726 215.679 526.799 216.658 531.992C217.636 537.185 219.532 541.9 222.468 546.198C225.343 550.435 229.257 553.957 234.088 556.643C238.981 559.329 244.73 560.701 251.397 560.701H416.345L416.376 560.615C417.491 560.672 418.614 560.701 419.745 560.701C454.177 560.701 482.067 533.484 482.067 499.881C482.067 485.948 477.283 473.104 469.228 462.84L568.328 462.994C572.732 462.994 575.973 464.188 578.052 466.575C580.193 468.963 581.172 471.589 581.049 474.454C580.927 477.319 579.704 479.945 577.441 482.333C575.117 484.72 571.815 485.914 567.411 485.914L482.878 486.109V487.465L605.269 560.901V560.642H629.733L629.244 473.499C629.244 471.231 629.733 469.261 630.712 467.471C631.69 465.74 633.035 464.367 634.748 463.531C636.46 462.696 638.479 462.397 640.68 462.636C642.882 462.875 645.267 463.89 647.775 465.621L783 561V531.813L662.943 447.118C657.133 442.939 650.772 440.492 644.044 439.657C637.317 438.821 631.017 439.478 625.207 441.567C619.397 443.656 614.565 447.118 610.773 452.012C606.92 456.906 605.024 462.994 605.024 470.336V533.407L559.643 508.058L570.775 507.879C578.419 507.819 584.719 506.028 589.795 502.626C594.871 499.164 598.602 494.926 600.987 489.853C603.373 484.72 604.413 479.229 604.168 473.26C603.924 467.351 602.333 461.8 599.337 456.787C596.339 451.773 592.058 447.535 586.432 444.193C580.805 440.85 573.771 439.179 565.331 439.179H450.093L424.337 439.159C422.841 439.053 421.33 439 419.806 439C418.316 439 416.838 439.051 415.376 439.151L224.181 439ZM364.539 471.631L246.993 516.116C244.486 517.131 242.773 518.802 241.856 521.07C240.938 523.337 240.755 525.665 241.367 527.993C241.978 530.321 243.324 532.41 245.281 534.2C247.238 535.991 249.868 536.886 253.109 536.886L370.37 537.009C362.251 526.739 357.422 513.863 357.422 499.881C357.422 489.687 359.994 480.075 364.539 471.631ZM457.664 499.881C457.664 479.468 440.661 462.875 419.806 462.875C398.889 462.875 381.886 479.468 381.947 499.881C381.947 520.234 398.889 536.827 419.806 536.827C440.661 536.827 457.664 520.294 457.664 499.881Z" fill="white"/>
</svg>
